<svg xmlns="http://www.w3.org/2000/svg" fill="none" width="24" height="24" viewBox="0 0 24 24"><g style="mix-blend-mode:passthrough"><g style="mix-blend-mode:passthrough"><rect x="7" y="1" width="15" height="15" rx="2" fill="#049FFF"/><rect x="2" y="11" width="12" height="12" rx="2" fill="#40ECF4"/><rect x="16" y="17" width="6" height="6" rx="1" fill="#FF5F59"/><path d="M7 11v3q0 .098.01.196t.028.194q.02.097.048.19.029.095.066.185.038.091.084.178.046.086.101.168.055.082.117.158.062.076.132.145.07.07.145.132.076.062.158.117.082.055.168.1.087.047.178.085.09.037.184.066.094.028.19.048.097.019.195.028.098.01.196.01h5v-3q0-.098-.01-.196t-.028-.194q-.02-.097-.048-.19-.029-.095-.066-.185-.038-.091-.084-.178-.046-.086-.101-.168-.055-.082-.117-.158-.062-.076-.132-.145-.07-.07-.145-.132-.076-.062-.158-.117-.082-.055-.168-.1-.087-.047-.178-.085-.09-.037-.184-.066-.094-.028-.19-.048-.097-.019-.195-.028Q12.098 11 12 11H7z" fill-rule="evenodd" fill="#0065FE"/></g></g></svg>